<svg width="1600" height="1000" viewBox="0 0 1600 1000" fill="none" xmlns="http://www.w3.org/2000/svg">
  <rect width="1600" height="1000" fill="url(#page)"/>
  <circle cx="205" cy="152" r="320" fill="#B2AEFA" fill-opacity=".32"/>
  <circle cx="1310" cy="174" r="275" fill="#71A4D5" fill-opacity=".22"/>
  <circle cx="1246" cy="842" r="330" fill="#FE7BA7" fill-opacity=".18"/>
  <path d="M-40 820C185 645 410 724 616 584C850 424 998 318 1274 360C1412 381 1534 327 1640 252" stroke="white" stroke-opacity=".72" stroke-width="4"/>
  <path d="M-20 858C214 684 421 770 653 619C878 473 1038 366 1285 399C1427 418 1537 368 1644 294" stroke="#4B4BFE" stroke-opacity=".16" stroke-width="16" stroke-linecap="round"/>
  <path d="M190 666C252 624 314 619 381 651C432 676 486 670 537 638" stroke="#1D195C" stroke-opacity=".12" stroke-width="10" stroke-linecap="round"/>
  <path d="M1024 232C1082 192 1163 210 1195 273" stroke="#FE7BA7" stroke-opacity=".22" stroke-width="12" stroke-linecap="round"/>
  <g opacity=".42">
    <circle cx="260" cy="280" r="6" fill="#4B4BFE"/>
    <circle cx="384" cy="398" r="5" fill="#FE7BA7"/>
    <circle cx="542" cy="310" r="7" fill="#71A4D5"/>
    <circle cx="1100" cy="548" r="6" fill="#4B4BFE"/>
    <circle cx="1286" cy="610" r="5" fill="#FE7BA7"/>
    <circle cx="1396" cy="452" r="7" fill="#71A4D5"/>
  </g>
  <g opacity=".34">
    <rect x="116" y="536" width="190" height="112" rx="24" fill="white"/>
    <rect x="1226" y="260" width="220" height="128" rx="28" fill="white"/>
    <rect x="1058" y="720" width="260" height="142" rx="32" fill="white"/>
  </g>
  <path d="M1310 265C1310 241.252 1329.25 222 1353 222C1376.75 222 1396 241.252 1396 265C1396 300.5 1353 344 1353 344C1353 344 1310 300.5 1310 265Z" fill="#4B4BFE" fill-opacity=".1"/>
  <path d="M1353 279C1360.73 279 1367 272.732 1367 265C1367 257.268 1360.73 251 1353 251C1345.27 251 1339 257.268 1339 265C1339 272.732 1345.27 279 1353 279Z" fill="#FE7BA7" fill-opacity=".28"/>
  <defs>
    <linearGradient id="page" x1="0" y1="0" x2="1600" y2="1000" gradientUnits="userSpaceOnUse">
      <stop stop-color="#F2F0FF"/>
      <stop offset=".52" stop-color="#F7FBFF"/>
      <stop offset="1" stop-color="#FFF7F5"/>
    </linearGradient>
  </defs>
</svg>
